<svg width="42" height="61" viewBox="0 0 42 61" fill="none" xmlns="http://www.w3.org/2000/svg">
<path d="M40.2939 49.2006C39.8027 49.2006 39.4043 49.5989 39.4043 50.0902V58.4282C39.4043 58.6937 39.1786 58.9194 38.9131 58.9194H34.1466V41.4601C34.1466 40.9688 33.7483 40.5705 33.257 40.5705C32.7658 40.5705 32.3675 40.9688 32.3675 41.4601V58.9194H22.7682L25.5563 55.8524C25.8617 55.5205 26.0078 55.0425 25.9414 54.5778C25.9414 54.5646 25.9414 54.5646 25.9414 54.5513L23.286 38.8843L24.0029 37.8089C24.4012 38.0877 24.7066 38.3532 25.2775 38.3532C25.8617 38.3532 26.4061 38.0346 26.6716 37.4902L29.4731 31.8873L35.8461 34.3569C36.0718 34.4498 39.4176 35.9634 39.4176 39.9465V45.9477C39.4176 46.439 39.8159 46.8373 40.3072 46.8373C40.7984 46.8373 41.1967 46.439 41.1967 45.9477V39.9465C41.1967 34.702 36.7091 32.8034 36.5099 32.7238C36.5099 32.7238 36.4966 32.7238 36.4966 32.7105L25.8883 28.6079V26.1251C27.5745 24.8106 28.7428 22.8722 29.0349 20.6549C29.8714 20.6018 30.6548 20.2832 31.2921 19.7388C32.1285 19.0218 32.5932 17.9862 32.5932 16.8842C32.5932 15.9681 32.2612 15.1051 31.6771 14.428V11.1485C31.6771 5.09419 26.7513 0.155121 20.6836 0.155121C14.616 0.155121 9.69023 5.08091 9.69023 11.1485V14.5209C9.09276 15.198 8.77411 16.0212 8.77411 16.8975C8.77411 17.9995 9.25209 19.0351 10.0753 19.7521C10.7126 20.2964 11.4959 20.6151 12.3324 20.6682C12.6245 22.9253 13.8327 24.9434 15.6517 26.2711V28.6212L5.05654 32.7238H5.04325C4.85737 32.8034 0.356445 34.702 0.356445 39.9465V58.4149C0.356445 59.663 1.36552 60.672 2.61356 60.672H11.0578C11.549 60.672 11.9473 60.2737 11.9473 59.7824C11.9473 59.2912 11.549 58.8929 11.0578 58.8929H9.14586V41.4335C9.14586 40.9423 8.74757 40.544 8.25632 40.544C7.76507 40.544 7.36674 40.9423 7.36674 41.4335V58.8929H2.60027C2.33473 58.8929 2.10903 58.6672 2.10903 58.4016V39.9332C2.10903 35.9368 5.48141 34.4365 5.68056 34.3436L12.0403 31.8741L14.8417 37.477C15.1073 38.0081 15.6517 38.34 16.2359 38.34C16.8068 38.34 17.0989 38.0744 17.5104 37.7956L18.2274 38.8711L15.572 54.538C15.572 54.5513 15.572 54.5513 15.572 54.5646C15.5056 55.0293 15.6516 55.5072 15.957 55.8392L18.7452 58.9062H15.2002C14.709 58.9062 14.3107 59.3045 14.3107 59.7957C14.3107 60.287 14.709 60.6853 15.2002 60.6853H38.8865C40.1346 60.6853 41.1436 59.6762 41.1436 58.4282V50.0902C41.1834 49.5989 40.7852 49.2006 40.2939 49.2006ZM27.8002 31.25L25.1979 36.4812C25.1315 36.4414 23.7507 35.4589 22.0645 34.2506C22.7947 33.3478 21.945 34.41 25.2908 30.2808L27.8002 31.25ZM22.569 36.7866L21.8919 37.8089H19.6746L18.9975 36.7866L20.7766 35.5252L22.569 36.7866ZM17.444 28.9V27.2403C18.5195 27.6785 19.6746 27.8776 20.8032 27.8776C21.9716 27.8776 23.1001 27.6254 24.1224 27.1872V28.9132L20.7899 33.0291L17.444 28.9ZM30.8141 16.8842C30.8141 17.4684 30.5618 18.0128 30.1237 18.3978C29.8316 18.6501 29.4864 18.8094 29.1013 18.8758V14.9192C30.1237 15.0785 30.8141 15.915 30.8141 16.8842ZM12.266 18.8625C11.2304 18.6899 10.5533 17.8402 10.5533 16.8842C10.5533 15.9416 11.3366 15.1582 12.266 14.9458V18.8625ZM12.3191 13.1401C12.0403 13.1667 11.7083 13.2463 11.4693 13.326V11.1352C11.4693 6.05013 15.5985 1.92095 20.6836 1.92095C25.7688 1.92095 29.8979 6.05013 29.8979 11.1352V13.2729C29.6457 13.1932 29.3669 13.1401 29.1013 13.1135C29.1013 12.2638 29.1146 12.4231 26.3132 9.40922C25.7953 8.85159 24.9456 8.74538 24.295 9.17025C21.2015 11.1884 17.4308 12.1974 13.9654 11.9584C13.1954 11.9053 12.505 12.3966 12.3191 13.1401ZM14.0451 19.5662V14.0297V13.7376C17.8689 13.9633 21.8919 12.8214 25.1315 10.7502C26.4193 12.131 27.1098 12.848 27.3355 13.1268C27.3355 13.8172 27.3355 18.7696 27.3355 19.5662C27.3355 23.1643 24.4013 26.0985 20.8032 26.0985C16.7537 26.0985 14.0451 22.9651 14.0451 19.5662ZM16.3686 36.4812L13.7663 31.25L16.2889 30.2808L19.5153 34.2506C17.8557 35.419 16.5146 36.375 16.3686 36.4812ZM17.3777 54.7372L19.9401 39.5747H21.5998L24.1623 54.7372L20.7633 58.4813L17.3777 54.7372Z" fill="white"/>
</svg>
