<svg width="56" height="71" viewBox="0 0 56 71" fill="none" xmlns="http://www.w3.org/2000/svg">
<path d="M48.1335 45.8739L44.036 44.6724L35.1326 38.86V37.525C37.7102 35.5841 39.4765 32.606 39.8154 29.1966C41.1093 28.9912 42.0951 27.8616 42.0951 26.5163V22.8502C42.0951 22.8399 42.0951 22.8194 42.0951 22.8091V18.1674C42.6086 17.7977 42.9372 17.2021 42.9372 16.5243V12.2728L49.0782 11.2254C50.0846 11.0508 50.8137 10.2498 50.8856 9.23314C50.9575 8.20621 50.3517 7.31277 49.3761 7.00469L28.6629 0.411832C28.2316 0.278331 27.7695 0.278331 27.3382 0.411832L6.62504 7.00469C5.64946 7.31277 5.04354 8.20621 5.11542 9.23314C5.1565 9.88011 5.47484 10.4449 5.94723 10.8043V16.36H5.8959C4.7252 16.36 3.78043 17.3048 3.78043 18.4755V21.2379L2.41459 29.2582C2.1784 30.6446 3.24646 31.918 4.65335 31.918H9.27453C10.6814 31.918 11.7494 30.6549 11.5132 29.2582L10.1474 21.2379V18.4755C10.1474 17.3048 9.20262 16.36 8.03193 16.36H7.98059V11.4102L13.0638 12.2728V16.5243C13.0638 17.1918 13.3925 17.7977 13.9059 18.1674V22.8605V26.5266C13.9059 27.8822 14.8918 29.0015 16.1857 29.2069C16.5144 32.6163 18.2807 35.5841 20.8582 37.525V38.86L11.9548 44.6724L7.86758 45.8739C3.49287 47.1576 0.401855 51.1729 0.401855 55.8454V58.8851C0.401855 59.45 0.863963 59.9018 1.4185 59.9018C1.98331 59.9018 2.43515 59.4397 2.43515 58.8851V55.8454C2.43515 52.169 4.89981 48.8726 8.43244 47.8354L12.2423 46.716L27.4614 55.7633C27.7695 55.9481 28.1803 55.9584 28.5089 55.7633L43.7382 46.716L47.5481 47.8354C51.0807 48.8726 53.5454 52.169 53.5454 55.8454V65.7142C53.5454 66.9773 52.5184 68.0042 51.2553 68.0042H46.7574V63.5987C46.7574 63.0339 46.2952 62.5821 45.7407 62.5821C45.1759 62.5821 44.7241 63.0442 44.7241 63.5987V68.0042H11.2873V63.5987C11.2873 63.0339 10.8252 62.5821 10.2706 62.5821C9.70581 62.5821 9.25397 63.0442 9.25397 63.5987V68.0042H4.75602C3.4929 68.0042 2.46599 66.9773 2.46599 65.7142V63.6706C2.46599 63.1058 2.00382 62.6539 1.44928 62.6539C0.884469 62.6539 0.432631 63.1161 0.432631 63.6706V65.7142C0.432631 68.1069 2.38383 70.0479 4.7663 70.0479H51.2861C53.6789 70.0479 55.6197 68.0967 55.6197 65.7142V55.8454C55.5992 51.2858 52.6211 47.1884 48.1335 45.8739ZM9.27453 29.8641H4.65335C4.50958 29.8641 4.39659 29.7409 4.4274 29.5971L5.65972 22.347H8.2681L9.50043 29.5971C9.53123 29.7409 9.4183 29.8641 9.27453 29.8641ZM8.1141 18.4857V20.3034H5.824V18.4857C5.824 18.4447 5.85482 18.4139 5.8959 18.4139H8.0422C8.08328 18.4139 8.1141 18.4447 8.1141 18.4857ZM24.3498 51.1421L24.7606 51.7685L14.327 45.5761L20.9507 41.2528C21.2485 44.7751 22.4089 48.164 24.3498 51.1421ZM24.3396 46.7366C26.7426 47.0754 29.2585 47.0754 31.6616 46.7366C31.1994 47.8764 30.6243 48.9855 29.9465 50.033L28.0057 53.0214L26.0648 50.033C25.3767 48.9855 24.8119 47.8764 24.3396 46.7366ZM31.6616 51.1421C33.6025 48.1537 34.7629 44.7649 35.0607 41.2425L41.6844 45.5659L31.2508 51.7583L31.6616 51.1421ZM37.6383 18.5474H40.0515V21.8335H38.8501C38.1825 21.8335 37.628 21.2893 37.628 20.6115L37.6383 18.5474ZM7.24117 8.95585L27.9543 2.36299C27.9851 2.35272 28.0057 2.35272 28.0365 2.36299L48.7496 8.95585C48.7907 8.96612 48.8523 8.98667 48.842 9.08936C48.8318 9.19205 48.7702 9.20232 48.7291 9.21258L41.8795 10.3833L39.3122 10.065C38.7576 9.99307 38.2441 10.3936 38.1722 10.9584C38.1004 11.5232 38.5009 12.0264 39.0657 12.0983L40.8936 12.3242V16.5141H15.1075V12.3242L25.6745 11.02C27.2149 10.8249 28.7759 10.8249 30.3163 11.02L34.3213 11.5129C34.8861 11.5848 35.3893 11.1843 35.4612 10.6195C35.5331 10.0547 35.1325 9.55148 34.5677 9.4796L30.5627 8.98666C28.858 8.771 27.1328 8.771 25.4178 8.98666L14.101 10.3833L7.25145 9.21258C7.21037 9.20232 7.14877 9.19205 7.1385 9.08936C7.1385 8.98667 7.20009 8.96612 7.24117 8.95585ZM15.9496 21.8335V18.5474H18.3731V20.6115C18.3731 21.279 17.8288 21.8335 17.1511 21.8335H15.9496ZM18.1985 28.6729C18.1471 27.8411 17.4591 27.1941 16.6273 27.1941C16.2576 27.1941 15.9496 26.8963 15.9496 26.5163V23.8771H17.1511C18.9482 23.8771 20.4167 22.4086 20.4167 20.6115V18.5474H35.5844V20.6115C35.5844 22.4086 37.0529 23.8771 38.8501 23.8771H40.0515V26.5163C40.0515 26.886 39.7538 27.1941 39.3738 27.1941C38.542 27.1941 37.8539 27.8411 37.8026 28.6729C37.4739 33.8281 33.1711 37.8742 27.9954 37.8742C22.83 37.8742 18.5271 33.8383 18.1985 28.6729ZM28.0057 39.9178C29.8234 39.9178 31.5486 39.507 33.0992 38.7676V39.4146C33.0992 41.1603 32.863 42.8856 32.4112 44.5492C29.6385 45.0832 26.4961 45.1037 23.6104 44.5492C23.1586 42.8856 22.9224 41.1603 22.9224 39.4146C22.9224 39.394 22.9224 39.3735 22.9224 39.3529V39.3427V38.7676C24.4525 39.507 26.188 39.9178 28.0057 39.9178Z" fill="white"/>
</svg>
