<svg width="70" height="71" viewBox="0 0 70 71" fill="none" xmlns="http://www.w3.org/2000/svg">
<path d="M29.741 30.1207C29.741 28.5037 29.741 27.0005 29.741 25.4973C29.741 22.4795 31.1759 21.0446 34.1937 21.0332C39.8307 21.0332 45.4677 21.0332 51.1047 21.0332C54.0998 21.0332 55.5232 22.4453 55.546 25.4061C55.5574 26.9207 55.546 28.4353 55.546 30.0638C55.9446 30.0866 56.2862 30.1207 56.6392 30.1207C59.3723 30.1207 62.094 30.1094 64.8271 30.1207C67.8563 30.1321 69.9061 32.1706 69.9061 35.1997C69.9175 45.1186 69.9061 55.0261 69.9061 64.945C69.9061 68.1905 67.936 70.172 64.7133 70.172C50.0115 70.172 35.3097 70.172 20.6079 70.172C17.3737 70.172 15.3922 68.2133 15.3922 64.9563C15.3809 57.7136 15.3809 50.4709 15.3809 43.2168C15.3809 40.609 15.3809 38.0012 15.3922 35.3934C15.4036 32.0909 17.3623 30.1321 20.6534 30.1207C23.3182 30.1207 25.9944 30.1094 28.6591 30.1094C28.9666 30.1207 29.2969 30.1207 29.741 30.1207ZM17.6129 45.9613C17.6129 45.9955 17.5673 46.2005 17.5673 46.4054C17.5673 52.6232 17.5673 58.841 17.5787 65.0588C17.5787 67.0289 18.5923 67.9855 20.5965 67.9855C35.3097 67.9855 50.0115 67.9855 64.7247 67.9855C66.7517 67.9855 67.7197 67.0062 67.7197 64.9563C67.7197 58.8638 67.7197 52.7599 67.7197 46.6674C67.7197 46.3485 67.6855 46.041 67.6741 45.7563C66.7859 46.0296 65.9887 46.3371 65.1688 46.4966C60.3858 47.4418 55.5915 48.3414 50.7972 49.2638C50.0229 49.4119 48.998 49.3549 48.5652 49.8332C48.1553 50.2887 48.3716 51.3136 48.3147 52.0766C48.3147 52.1108 48.3147 52.1336 48.3147 52.1677C48.1666 54.5592 46.4698 56.6773 44.2036 57.2923C41.778 57.9528 39.2841 57.0076 37.9175 54.935C37.0065 53.5684 36.904 52.0425 36.9837 50.4823C37.0179 49.9243 36.8357 49.6852 36.2549 49.5827C33.5104 49.093 30.7773 48.5578 28.0442 48.0225C24.5823 47.3393 21.1431 46.656 17.6129 45.9613ZM48.3261 47.4303C48.6905 47.4076 48.9296 47.419 49.1574 47.3734C51.9588 46.8382 54.7602 46.303 57.5503 45.7677C60.0784 45.278 62.6065 44.8111 65.1346 44.2759C67.0478 43.8659 67.7197 42.9549 67.7197 41.0303C67.7197 39.1855 67.7197 37.3293 67.7197 35.4844C67.7197 33.2866 66.7631 32.33 64.5652 32.33C60.6819 32.33 56.7987 32.3528 52.9154 32.3528C42.1538 32.3528 31.3809 32.3414 20.6193 32.33C18.6036 32.33 17.5901 33.3321 17.5673 35.3364C17.5559 37.1812 17.5673 39.0375 17.5787 40.8823C17.5787 43.0346 18.2734 43.9115 20.3801 44.3328C24.867 45.2097 29.3652 46.0638 33.8634 46.9179C34.8542 47.1115 35.8563 47.2709 36.8243 47.4417C36.8812 47.2709 36.9268 47.214 36.9268 47.157C36.9382 46.1549 36.9382 45.1528 36.9609 44.1506C36.9837 42.6019 37.7809 41.7933 39.3182 41.782C41.5047 41.7706 43.6798 41.7706 45.8663 41.782C47.5403 41.7933 48.3033 42.5449 48.3147 44.2303C48.3375 45.2553 48.3261 46.3143 48.3261 47.4303ZM31.9503 30.1094C32.5766 30.1094 33.0777 30.0752 33.5901 30.1207C34.2051 30.1663 34.3873 29.9044 34.3645 29.3236C34.3303 28.3214 34.3873 27.3193 34.3417 26.3172C34.319 25.6681 34.5581 25.4973 35.1844 25.4973C40.1609 25.52 45.1261 25.52 50.1026 25.4973C50.7745 25.4973 51.0136 25.6795 50.9908 26.3741C50.9453 27.5812 50.9794 28.777 50.9794 30.0183C51.8222 30.0183 52.5624 30.0183 53.3595 30.0183C53.3595 28.367 53.3709 26.7955 53.3595 25.2126C53.3481 23.7891 52.7901 23.2197 51.378 23.2197C48.8955 23.2083 46.4015 23.2197 43.9189 23.2197C40.5481 23.2197 37.1887 23.2197 33.8179 23.231C32.7018 23.231 31.9958 23.7321 31.9616 24.6773C31.9161 26.4311 31.9503 28.1848 31.9503 30.1094ZM39.2158 44.0026C39.193 44.3556 39.1588 44.6517 39.1588 44.9478C39.1588 47.157 39.1474 49.3663 39.1588 51.5756C39.1702 53.7506 40.6392 55.288 42.6663 55.2766C44.7047 55.2652 46.1168 53.762 46.1282 51.5528C46.1396 49.3093 46.1282 47.0773 46.1282 44.8339C46.1282 44.572 46.094 44.3101 46.0713 44.014C43.7709 44.0026 41.5161 44.0026 39.2158 44.0026ZM36.6421 30.1207C40.5595 30.1207 44.4314 30.1321 48.3033 30.098C48.4627 30.098 48.7019 29.8133 48.7588 29.6083C48.8385 29.3236 48.7474 29.0047 48.793 28.7086C48.9068 27.9115 48.6108 27.6723 47.7908 27.6837C44.7047 27.7293 41.6186 27.7065 38.5211 27.7065C36.3004 27.6951 36.3004 27.6951 36.6421 30.1207Z" fill="white"/>
<path d="M33.1574 2.5279C32.7816 2.50512 32.5197 2.48234 32.2464 2.48234C22.8172 2.48234 13.388 2.48234 3.95885 2.48234C2.48981 2.48234 2.2051 2.76704 2.2051 4.22469C2.2051 22.0809 2.2051 39.9372 2.2051 57.7934C2.2051 59.2283 2.47841 59.513 3.89051 59.513C6.3503 59.513 8.7987 59.513 11.2585 59.5016C11.4976 59.5016 11.7482 59.4902 11.9873 59.513C12.6934 59.5585 13.1489 59.9002 13.1261 60.6404C13.1033 61.335 12.6478 61.6767 11.9873 61.6767C8.9809 61.6881 5.9859 61.7222 2.97949 61.6425C1.38518 61.597 0.10973 60.1962 0.0186263 58.6019C-0.00414953 58.2945 0.00724464 57.9984 0.00724464 57.6909C0.00724464 39.8575 0.00724464 22.0354 0.00724464 4.20192C0.00724464 1.46883 1.21435 0.273083 3.94745 0.273083C13.8663 0.273083 23.7738 0.284495 33.6927 0.261719C34.8428 0.261719 35.7539 0.648894 36.5168 1.45743C39.1816 4.3158 41.8578 7.17416 44.5339 10.0325C45.2058 10.75 45.5361 11.5927 45.5247 12.5834C45.5019 14.1891 45.5247 15.7948 45.5133 17.4005C45.5019 18.266 45.0692 18.7898 44.4087 18.7898C43.7368 18.7898 43.3382 18.2888 43.3268 17.4005C43.3154 16.3984 43.2585 15.3962 43.3268 14.4055C43.3838 13.5514 43.1446 13.2325 42.2336 13.2667C40.7532 13.335 39.2614 13.3009 37.7809 13.2781C34.8542 13.2439 33.1574 11.5357 33.146 8.62044C33.1574 6.63894 33.1574 4.63466 33.1574 2.5279ZM35.5717 4.4069C35.5033 4.44106 35.435 4.47524 35.3667 4.49802C35.3667 6.06955 35.3325 7.6297 35.3781 9.20123C35.4008 9.97561 35.8222 10.7614 36.5624 10.8639C38.1681 11.0916 39.808 11.0802 41.4364 11.1713C41.4592 11.0688 41.482 10.9549 41.5048 10.8525C39.5347 8.71153 37.5532 6.55921 35.5717 4.4069Z" fill="white"/>
<path d="M62.2086 6.5363C61.2179 7.18541 60.2613 7.76621 59.3389 8.40393C58.7695 8.79112 58.2684 8.76834 57.6535 8.47225C56.5716 7.94841 55.4442 7.4815 54.3054 7.08293C53.6905 6.86656 53.3147 6.5591 53.1894 5.92137C53.0186 4.99895 52.7566 4.08789 52.6428 3.15409C52.5517 2.37971 52.0506 2.44806 51.5381 2.47084C50.9915 2.49362 50.3766 2.27724 50.2627 3.17688C50.1488 4.07653 49.8983 4.9534 49.7275 5.85305C49.5794 6.59326 49.2378 7.11708 48.3951 7.0032C47.7346 6.9121 47.4157 6.27438 47.5865 5.44307C47.8598 4.11068 48.1559 2.77831 48.4293 1.43454C48.5887 0.671547 48.9986 0.272959 49.8072 0.284347C50.9232 0.307123 52.0506 0.295735 53.178 0.284347C53.941 0.272959 54.3509 0.637362 54.499 1.37758C54.704 2.3911 54.8862 3.40465 55.1823 4.3954C55.2848 4.72565 55.6378 5.02172 55.9339 5.23809C56.1958 5.4203 56.5944 5.42031 56.8563 5.60251C58.109 6.53632 59.0997 6.05802 60.2385 5.27225C62.6869 3.56407 62.3908 3.51851 64.5431 5.6936C66.6385 7.81175 66.741 7.47011 64.9645 9.99823C64.1673 11.1256 63.951 12.0253 64.5545 13.4032C65.1012 14.6331 65.6933 15.2367 66.9801 15.3392C67.6406 15.3961 68.2784 15.6238 68.9275 15.7605C69.6335 15.9085 69.941 16.3413 69.941 17.0587C69.9296 18.1748 69.9182 19.3022 69.941 20.4296C69.9524 21.2381 69.5652 21.6594 68.7908 21.8075C67.8342 21.9897 66.9004 22.2288 65.9439 22.3883C65.4086 22.4794 65.1353 22.6957 64.9303 23.2424C64.5773 24.2103 64.1104 25.1327 63.6549 26.0438C63.3246 26.7157 62.7894 27.0801 62.0264 26.7043C61.4115 26.3968 61.3773 25.7705 61.7531 24.962C62.2655 23.8687 62.7439 22.7527 63.131 21.6139C63.3588 20.9534 63.7118 20.6004 64.3837 20.4751C65.3061 20.3157 66.2172 20.0765 67.1396 19.9171C68.062 19.7577 67.6748 19.063 67.7431 18.562C67.8001 18.0951 67.8001 17.6737 67.1396 17.5712C66.183 17.4231 65.2378 17.184 64.2926 17.0018C63.6549 16.8765 63.3474 16.5007 63.131 15.8858C62.7325 14.747 62.2656 13.631 61.7417 12.5377C61.4342 11.9114 61.4228 11.4103 61.8214 10.8523C62.2883 10.1804 62.6641 9.44021 63.1766 8.81388C63.7004 8.16477 63.5865 7.70928 62.9716 7.24237C62.7097 7.04878 62.5047 6.82099 62.2086 6.5363Z" fill="white"/>
<path d="M60.5573 18.744C60.284 19.8828 60.0677 21.0443 59.7146 22.1603C59.4641 22.9803 58.815 23.2878 58.1773 23.0031C57.4257 22.6614 57.4143 22.0465 57.6762 21.3974C59.578 16.7056 56.0477 12.0251 51.5951 12.0024C50.8435 12.0024 50.3652 11.6266 50.4107 10.8294C50.4563 10.0095 51.037 9.81586 51.7545 9.81586C56.4235 9.81586 60.3751 13.8813 60.5573 18.744Z" fill="white"/>
<path d="M20.2329 17.1954C17.9325 17.1954 15.6321 17.1954 13.3318 17.1954C13.0926 17.1954 12.8421 17.2182 12.603 17.184C11.9425 17.1043 11.5097 16.7285 11.5439 16.0566C11.578 15.3961 12.0108 15.0317 12.6941 15.0317C17.7161 15.0317 22.7496 15.0317 27.7716 15.0317C28.5005 15.0317 28.9446 15.4416 28.9218 16.1477C28.8877 16.9221 28.3297 17.2068 27.6008 17.2068C25.1297 17.1954 22.6813 17.1954 20.2329 17.1954Z" fill="white"/>
<path d="M20.2097 10.0437C22.5442 10.0437 24.8673 10.0437 27.2018 10.0437C27.4979 10.0437 27.8737 9.96393 28.0901 10.112C28.4317 10.3511 28.8531 10.7269 28.8758 11.0686C28.8986 11.4102 28.5228 11.8657 28.204 12.0935C27.9534 12.2757 27.5093 12.2301 27.1449 12.2301C22.5442 12.2415 17.9434 12.2301 13.3427 12.2301C13.2516 12.2301 13.1605 12.2301 13.0694 12.2301C12.0559 12.2073 11.5093 11.8088 11.5207 11.0913C11.5435 10.408 12.0445 10.0437 13.0353 10.0437C15.4267 10.0437 17.8182 10.0437 20.2097 10.0437Z" fill="white"/>
<path d="M16.6791 22.1264C15.4037 22.1264 14.1396 22.1378 12.8642 22.1264C11.9987 22.115 11.4521 21.6709 11.5204 21.0104C11.6001 20.2474 12.1126 19.9399 12.8414 19.9399C15.3809 19.9399 17.9204 19.9399 20.4713 19.9513C21.2115 19.9513 21.724 20.2815 21.7012 21.0787C21.6898 21.8303 21.1887 22.1264 20.4941 22.1264C19.2186 22.1264 17.9546 22.1264 16.6791 22.1264Z" fill="white"/>
<path d="M6.99982 14.9976C7.96779 14.9976 8.48025 15.362 8.49163 16.0681C8.50302 16.7969 7.94501 17.1955 6.95426 17.1841C6.03184 17.1727 5.48523 16.7399 5.50801 16.0567C5.5194 15.3734 6.04324 14.9976 6.99982 14.9976Z" fill="white"/>
<path d="M6.98823 22.1264C6.03164 22.1264 5.50781 21.7392 5.50781 21.0445C5.50781 20.3499 6.04304 19.9513 6.97684 19.9399C7.96759 19.9399 8.5256 20.3499 8.49144 21.0787C8.46866 21.762 7.94481 22.1264 6.98823 22.1264Z" fill="white"/>
<path d="M6.97702 10.0553C7.99055 10.0439 8.51439 10.4424 8.503 11.1827C8.48022 11.8773 7.95639 12.2531 6.9998 12.2531C6.066 12.2531 5.51938 11.8432 5.50799 11.1599C5.4966 10.4538 6.03183 10.0553 6.97702 10.0553Z" fill="white"/>
<path d="M43.7253 51.7236C43.6342 52.3613 43.2812 52.7485 42.5979 52.7371C41.9488 52.7143 41.5844 52.3043 41.573 51.7008C41.5616 51.0403 41.983 50.619 42.6548 50.619C43.3153 50.619 43.6911 51.0175 43.7253 51.7236Z" fill="white"/>
</svg>
