<svg width="73" height="73" viewBox="0 0 73 73" fill="none" xmlns="http://www.w3.org/2000/svg">
<path d="M72.5112 44.2983C72.2457 44.0726 71.8872 43.9665 71.5288 44.0329L60.615 45.8518C59.898 45.9713 59.2076 46.2368 58.5969 46.6218L57.7604 44.5241C57.4285 43.6744 56.9638 42.9043 56.3796 42.2139L56.6982 39.3593C56.7779 38.6291 56.8177 37.8988 56.831 37.1686C56.831 34.4999 56.2867 31.8445 55.2245 29.3882C54.1889 26.9585 53.7109 24.3164 53.8437 21.6742L54.0428 17.4919C54.0561 17.2264 54.0694 16.9609 54.0694 16.682C54.0561 7.77312 46.8334 0.56369 37.9377 0.56369C29.0288 0.56369 21.8061 7.78641 21.8061 16.6953C21.8061 16.9609 21.8194 17.2264 21.8194 17.4919L22.0185 21.6609C22.0318 21.9663 22.0451 22.2717 22.0451 22.5505C22.0451 24.9005 21.5671 27.224 20.651 29.3749C19.2967 32.5216 18.7922 35.9471 19.1772 39.346L19.4959 42.1607C19.1374 42.5856 18.8055 43.0504 18.5399 43.5416L16.8936 39.4257C16.1633 37.6067 14.0921 36.7172 12.2731 37.4474C10.4542 38.1776 9.56464 40.2488 10.2949 42.0678C10.3347 42.1607 10.3745 42.2537 10.4144 42.3466L10.6401 42.8113H8.26349C7.32081 42.8113 6.4047 42.5856 5.56824 42.174L4.36002 41.5766C3.04559 40.926 1.45233 41.4571 0.801756 42.7582C0.615877 43.13 0.522949 43.5283 0.522949 43.9399V47.3521C0.522949 48.7197 1.29301 49.981 2.52778 50.5917L4.49278 51.5742C5.66116 52.1584 6.96233 52.4638 8.27676 52.4638H8.98044V56.0353L8.11744 67.3075C7.89173 70.2019 10.0692 72.7379 12.9636 72.9636C13.0963 72.9769 13.2291 72.9769 13.3619 72.9769C13.4548 72.9769 13.5345 72.9769 13.6274 72.9636C13.7071 72.9636 13.7867 72.9769 13.8531 72.9769C15.8978 72.9769 17.7168 71.7022 18.4205 69.7903L23.9304 59.5538C24.2624 61.0806 24.9262 62.5145 25.8689 63.7493V72.9769H28.2853V63.3244C28.2853 63.0456 28.1924 62.7668 28.0065 62.5543C25.1121 59.0624 25.5768 53.8844 29.0554 50.9767L27.5152 49.1179C26.9709 49.5826 26.4664 50.0872 26.0149 50.6448C25.9751 50.6979 25.922 50.7377 25.8954 50.7908L25.8689 50.8307C25.8689 50.844 25.8556 50.8439 25.8556 50.8572C25.1785 51.7468 24.6474 52.7293 24.2889 53.7915L18.6461 64.2936V49.6357L20.3589 45.3606C20.651 44.6303 21.0759 43.9664 21.6335 43.4088C22.7753 42.2537 24.3287 41.5898 25.9618 41.5898H29.9981L36.8888 54.2296C37.2075 54.8138 37.9377 55.0263 38.5219 54.7076C38.7211 54.6014 38.8937 54.4288 38.9999 54.2296L41.5624 49.5295V65.7143C41.5624 66.2852 41.974 66.7897 42.5316 66.896L47.5902 67.905V72.9503H50.0066V68.383L54.627 69.2991C54.6536 69.2991 54.7996 69.3124 54.8395 69.3124H57.1231L57.3488 69.7505C58.0658 71.6625 59.8847 72.937 61.9294 72.937C62.195 72.937 62.4605 72.9105 62.7261 72.8706C64.4653 72.5785 65.8993 71.3703 66.4967 69.724L69.7098 69.1929C70.825 69.007 71.6615 68.0644 71.7146 66.9358L71.9536 66.8827C72.5245 66.7764 72.9228 66.2719 72.9228 65.701V45.188C72.9494 44.8693 72.7901 44.524 72.5112 44.2983ZM32.6004 41.3509C33.6493 40.8862 34.3264 39.8506 34.3264 38.7087V35.0177C36.6764 35.7612 39.2123 35.7612 41.5624 35.0177V38.7087C41.5624 39.8506 42.2395 40.8862 43.2884 41.3509L41.8412 44.0196H34.0609L32.6004 41.3509ZM37.951 33.1456C32.6269 33.1456 28.2986 28.8173 28.2986 23.4932V18.0894C30.476 16.5227 32.2552 14.478 33.5165 12.1147C37.6058 15.3809 42.4519 17.5849 47.6034 18.4877V23.4932C47.5902 28.8306 43.2751 33.1456 37.951 33.1456ZM54.2553 43.4354L54.2818 43.4619C54.8262 44.0062 55.251 44.6701 55.5299 45.4004L56.0477 46.7148C55.3971 46.2766 54.6536 45.9846 53.8835 45.8518L44.4435 44.2851L45.904 41.6031H49.9269C51.56 41.5899 53.1267 42.267 54.2553 43.4354ZM54.959 50.0473L49.4622 48.9453L43.9655 47.8434V46.6351L53.4719 48.2151C54.5075 48.3877 55.3838 49.0648 55.7954 50.034H54.959V50.0473ZM61.0266 48.2284L70.533 46.6484V47.8567L64.8636 48.9852L59.5528 50.0473H58.7163C59.1147 49.0781 59.991 48.401 61.0266 48.2284ZM5.58151 49.4101L3.61651 48.4276C3.20492 48.2284 2.95266 47.8036 2.95266 47.3521V43.9399C2.95266 43.8603 2.99248 43.7806 3.07214 43.7407C3.13853 43.7009 3.23146 43.6876 3.31112 43.7274L4.51934 44.3249C5.68772 44.9091 6.98888 45.2145 8.30332 45.2145H12.6316C13.2955 45.2145 13.8399 44.6701 13.8399 44.0063C13.8399 43.8204 13.8 43.6345 13.7071 43.4619L12.6051 41.2579C12.3263 40.7003 12.552 40.0098 13.1096 39.731C13.1893 39.6912 13.2689 39.6647 13.3486 39.6382C13.9062 39.5054 14.4772 39.7974 14.6896 40.3152L16.2563 44.232V50.034H8.31659C7.34736 50.0473 6.41797 49.8217 5.58151 49.4101ZM16.2297 52.4638V54.8802H11.3969V52.4638H16.2297ZM10.5206 67.4801L11.3039 57.2834H16.2165V67.7058C16.2165 69.2061 15.0613 70.4409 13.5743 70.5471C13.5345 70.5471 13.4814 70.5472 13.4415 70.5604C13.415 70.5604 13.3884 70.5604 13.3751 70.5604C11.7952 70.5604 10.5206 69.2858 10.5206 67.7058C10.5206 67.6262 10.5206 67.5598 10.5206 67.4801ZM25.8954 50.8041C25.922 50.7776 25.9485 50.7377 25.9751 50.7112C25.9485 50.7377 25.922 50.7643 25.8954 50.8041ZM21.7264 40.3285L21.5937 39.0937C21.2617 36.1197 21.7132 33.0926 22.8948 30.3442C23.957 27.8879 24.4881 25.2457 24.4881 22.5638C24.4881 22.2318 24.4748 21.8999 24.4615 21.568L24.2624 17.3858C23.8906 9.81783 29.7192 3.37843 37.2872 3.00667C44.8551 2.63491 51.2945 8.46354 51.6662 16.0315C51.6795 16.2572 51.6795 16.4829 51.6795 16.7086C51.6795 16.9211 51.6663 17.1601 51.653 17.3991L51.4538 21.568C51.3077 24.5686 51.8389 27.5826 53.0205 30.3442C53.9499 32.4951 54.4279 34.8185 54.4279 37.1686C54.4279 37.8191 54.3881 38.4564 54.3084 39.0937L54.1756 40.3418C52.8877 39.5983 51.4273 39.2 49.9402 39.2H44.4701C44.2045 39.2 43.9921 38.9876 43.9921 38.722V33.9555C47.7229 31.8046 50.0199 27.8215 50.0199 23.5065V17.4787C50.0199 16.8812 49.5817 16.3634 48.9843 16.2837C43.6867 15.5269 38.6945 13.3097 34.5786 9.88418L33.8882 9.31328C33.3704 8.88841 32.6136 8.95479 32.1888 9.4726C32.1357 9.53898 32.0825 9.61863 32.0427 9.71157L31.578 10.641C30.3963 13.0043 28.6173 15.0092 26.4265 16.4829C26.0946 16.7086 25.8954 17.0803 25.8954 17.4919V23.5198C25.8954 27.8348 28.1924 31.8047 31.9232 33.9688V38.7352C31.9232 39.0008 31.7108 39.2133 31.4453 39.2133H25.9618C24.4748 39.1867 23.0143 39.585 21.7264 40.3285ZM37.951 51.1494L35.3753 46.4227H40.5268L37.951 51.1494ZM43.9788 50.3129L53.6312 52.2381V66.6703L43.9788 64.7451V50.3129ZM56.0477 52.4638H58.4641V66.949H56.0477V52.4638ZM62.3145 70.5339C62.195 70.5604 62.0622 70.5604 61.9294 70.5604C61.0531 70.5604 60.2432 70.0958 59.8051 69.339C59.8316 69.339 59.8449 69.339 59.8715 69.3257C59.8848 69.3257 59.8848 69.3257 59.898 69.3257H59.9113L62.3941 68.8344C62.6597 69.3124 63.0978 69.6974 63.6156 69.8966C63.2571 70.2285 62.8057 70.4409 62.3145 70.5339ZM69.3248 66.8429L64.4919 67.6527V63.1651C64.4919 62.9925 64.6247 62.8331 64.7973 62.8066L68.8999 62.1295C68.9264 62.1295 68.9397 62.1295 68.9662 62.1295C69.1654 62.1295 69.3248 62.2888 69.3248 62.4879V66.8429ZM68.5016 59.7396L64.3989 60.4167C63.0579 60.6424 62.0754 61.7975 62.0754 63.1518V66.4313L60.8673 66.6703V52.2381L70.5197 50.3129V60.191C69.9355 59.7794 69.2053 59.6201 68.5016 59.7396Z" fill="white"/>
</svg>
